<svg width="568" height="236" viewBox="0 0 568 236" fill="none" xmlns="http://www.w3.org/2000/svg">
<path d="M558.377 -28.4177C536.841 8.39745 474.895 9.52458 489.72 103.405C506.369 208.622 409.951 253.846 344.085 227.783C278.219 201.72 282.845 105.085 157.681 102.113C29.7161 99.0773 2.7952 -22.4644 2.7952 -22.4644" stroke="#FB6542" stroke-width="2" stroke-miterlimit="10"/>
<path d="M461.942 -56.7208C461.942 -10.0773 425.761 23.4818 438.752 103.287C451.742 183.092 393.357 192.424 370.094 183.092C321.854 163.733 312.576 60.2317 234.659 53.5014C176.083 48.4696 97.3443 88.5077 55.626 -2.35501" stroke="#FB6542" stroke-width="2" stroke-miterlimit="10"/>
<path d="M422.977 -20.9556C431.125 -7.87999 409.289 39.8578 378.458 46.3919C354.111 51.5519 313.523 -9.78073 230.041 27.4208C200.347 40.6644 80.6933 44.5851 104.814 -28.4357" stroke="#FB6542" stroke-width="2" stroke-miterlimit="10"/>
<path d="M381.241 154.798C395.072 154.798 406.283 138.292 406.283 117.931C406.283 97.5699 395.072 81.0638 381.241 81.0638C367.411 81.0638 356.2 97.5699 356.2 117.931C356.2 138.292 367.411 154.798 381.241 154.798Z" stroke="#FB6542" stroke-width="2" stroke-miterlimit="10"/>
</svg>